# xmcd
#
# Track frame offsets:
# 183
# 13555
# 26160
# 44830
# 58408
# 68690
# 83833
# 97988
# 111880
# 122753
# 134688
# 150830
#
# Disc length: 2240 seconds
#
#
# Revision: 2
# Processed by: cddbd v1.5.1PL0 Copyright (c) Steve Scherf et al.
# Submitted via: FreeRIP 2.942 
#
DISCID=a108be0c
DTITLE=Kenny Rogers - Ruby
DYEAR=1900
DGENRE=Country
TTITLE0=Ruby don't take your love to town
TTITLE1=Love woman
TTITLE2=The king of oak street
TTITLE3=Shine on ruby mountain
TTITLE4=Where does Rosie go
TTITLE5=Tell it all brother
TTITLE6=Molly
TTITLE7=I'm gonna sing you a sad song Susie
TTITLE8=We all got to help each other
TTITLE9=Elvira
TTITLE10=Tulsa turnabout
TTITLE11=Something's burning
EXTD=
EXTT0=
EXTT1=
EXTT2=
EXTT3=
EXTT4=
EXTT5=
EXTT6=
EXTT7=
EXTT8=
EXTT9=
EXTT10=
EXTT11=
PLAYORDER=
